<?xml version="1.0" standalone="no"?>
<!DOCTYPE svg PUBLIC "-//W3C//DTD SVG 20010904//EN"
 "http://www.w3.org/TR/2001/REC-SVG-20010904/DTD/svg10.dtd">
<svg version="1.0" xmlns="http://www.w3.org/2000/svg"
 width="350.000000pt" height="350.000000pt" viewBox="0 0 350.000000 350.000000"
 preserveAspectRatio="xMidYMid meet">
<metadata>
Created by potrace 1.11, written by Peter Selinger 2001-2013
</metadata>
<g transform="translate(0.000000,350.000000) scale(0.100000,-0.100000)"
fill="#000000" stroke="none">
<path d="M800 3423 c0 -7 -76 -364 -121 -568 -11 -49 -22 -101 -25 -115 -3
-14 -23 -108 -45 -210 -23 -102 -43 -196 -45 -210 -3 -14 -7 -32 -9 -40 -2 -8
-7 -30 -10 -49 -3 -19 -8 -38 -10 -41 -3 -4 -7 -25 -11 -46 -3 -22 -15 -77
-25 -124 -28 -123 -248 -1142 -263 -1215 -18 -88 -119 -547 -126 -575 -5 -19
-11 -48 -14 -65 -3 -16 -8 -42 -12 -58 l-6 -27 525 0 524 0 8 43 c4 23 9 47
10 52 2 6 5 24 8 40 3 17 24 115 46 219 23 104 43 198 45 210 6 32 47 229 52
248 6 28 11 52 50 238 20 96 39 178 43 182 3 3 182 8 396 11 215 3 408 8 430
11 42 7 94 14 160 22 102 14 269 64 383 115 203 91 413 293 529 509 101 186
142 367 137 596 -6 240 -74 434 -202 574 -107 118 -218 185 -377 229 -178 49
-202 50 -1152 51 -491 0 -893 -3 -893 -7z m1473 -675 c20 -9 40 -17 43 -17 3
1 25 -19 48 -43 116 -124 95 -379 -43 -524 -73 -77 -178 -142 -261 -160 -19
-4 -42 -9 -50 -12 -8 -2 -119 -5 -246 -7 l-232 -4 10 42 c13 57 92 419 131
600 l32 148 265 -3 c224 -3 271 -6 303 -20z"/>
</g>
</svg>
